<svg xmlns="http://www.w3.org/2000/svg" width="200" height="210" viewBox="0 0 200 210">
  <defs>
    <radialGradient id="sack" cx="0.4" cy="0.35" r="0.75">
      <stop offset="0" stop-color="#b58a58"/>
      <stop offset="1" stop-color="#6b4a2a"/>
    </radialGradient>
    <radialGradient id="shine" cx="0.35" cy="0.3" r="0.6">
      <stop offset="0" stop-color="#ffffff" stop-opacity="0.9"/>
      <stop offset="1" stop-color="#ffffff" stop-opacity="0"/>
    </radialGradient>
  </defs>
  <ellipse cx="100" cy="196" rx="84" ry="12" fill="#000" opacity="0.4"/>
  <!-- the sack -->
  <path d="M34 186 Q10 130 38 92 Q56 70 60 60 L140 60 Q144 70 162 92 Q190 130 166 186 Q100 204 34 186 Z" fill="url(#sack)"/>
  <path d="M52 110 Q60 150 50 180" fill="none" stroke="#5a3a20" stroke-width="3" opacity="0.6"/>
  <path d="M150 110 Q140 150 150 180" fill="none" stroke="#5a3a20" stroke-width="3" opacity="0.6"/>
  <path d="M90 90 Q100 140 92 190" fill="none" stroke="#5a3a20" stroke-width="2" opacity="0.4"/>
  <!-- the fold at the neck and its cord -->
  <path d="M46 72 Q100 40 154 72 Q140 88 100 84 Q60 88 46 72 Z" fill="#8a6440"/>
  <path d="M58 78 Q100 94 142 78" fill="none" stroke="#e8b661" stroke-width="4"/>
  <path d="M142 78 Q164 96 158 118" fill="none" stroke="#e8b661" stroke-width="3"/>
  <circle cx="158" cy="120" r="5" fill="#c9963f"/>
  <!-- gems spilling out of the top and down the side -->
  <polygon points="70,60 82,38 94,60" fill="#e2564a"/><polygon points="76,56 82,44 88,56" fill="#ff9c92"/>
  <rect x="96" y="30" width="22" height="22" fill="#5a8fd8" transform="rotate(18 107 41)"/>
  <rect x="101" y="35" width="10" height="10" fill="#bfe0ff" transform="rotate(18 106 40)" opacity="0.7"/>
  <path d="M130 40 Q124 32 118 40 Q112 50 130 62 Q148 50 142 40 Q136 32 130 40 Z" fill="#6fbf73"/>
  <circle cx="130" cy="46" r="4" fill="#d6ffd8" opacity="0.7"/>
  <ellipse cx="60" cy="46" rx="9" ry="14" fill="#a97fe0" transform="rotate(-24 60 46)"/>
  <circle cx="100" cy="62" r="12" fill="#e0b64a"/><circle cx="96" cy="58" r="5" fill="#fff1c2"/>
  <circle cx="150" cy="58" r="10" fill="#c6d4e8"/><circle cx="147" cy="55" r="4" fill="#ffffff"/>
  <polygon points="168,150 180,132 192,150 180,162" fill="#e2564a"/>
  <rect x="150" y="170" width="16" height="16" fill="#5a8fd8" transform="rotate(-14 158 178)"/>
  <ellipse cx="22" cy="176" rx="8" ry="11" fill="#a97fe0" transform="rotate(30 22 176)"/>
  <circle cx="40" cy="194" r="8" fill="#e0b64a"/>
  <circle cx="120" cy="30" r="18" fill="url(#shine)"/>
  <circle cx="80" cy="40" r="10" fill="url(#shine)"/>
</svg>
